# xmcd
#
# Track frame offsets:
#	150
#	18327
#	33520
#	49055
#	66300
#	85805
#	107447
#	122690
#	138837
#	151965
#	166665
#	178007
#	196937
#	207977
#	221940
#	243142
#
# Disc length: 3425 seconds
#
# Revision: 1
# Processed by: cddbd v1.5.1PL0 Copyright (c) Steve Scherf et al.
# Submitted via: CDex 1.50Beta5
#
DISCID=d50d5f10
DTITLE=きただにひろし - ベストヒットアニメソング2000女の子向き
DYEAR=2000
DGENRE=
TTITLE0=きただにひろし/ウィ・アー!
TTITLE1=2 Shy 4 U/ダイナマイトヘブン
TTITLE2=spoon/西の空ヘ
TTITLE3=石川ひとみ/世界中が宝物
TTITLE4=タケカワユキヒデ/BE WITH YOU〜ぼくたちがついてる〜
TTITLE5=こばやしさちこ/さよならありがとう
TTITLE6=両津勘吉とこち亀うぃ〜ん合唱団/おいでよ亀有
TTITLE7=小町&奈緒子/毎日、ノープロブレム
TTITLE8=DALI/ムーンライト伝説
TTITLE9=石田よう子/乙女のポリシー
TTITLE10=水木一郎&アップルパイ+4-B’S/まわりひまわりへろへろくん
TTITLE11=アップル・パイwith水木一郎/人生へろへろ
TTITLE12=Lady Q/ぐるぐるクロちゃん
TTITLE13=シスタ・K/ポジティブ・ヴァイブレーション
TTITLE14=Cover Boys/おはよう。
TTITLE15=白木由美/くまの子ウーフ
EXTD=
EXTT0=
EXTT1=
EXTT2=
EXTT3=
EXTT4=
EXTT5=
EXTT6=
EXTT7=
EXTT8=
EXTT9=
EXTT10=
EXTT11=
EXTT12=
EXTT13=
EXTT14=
EXTT15=
PLAYORDER=
